<?xml version="1.0" encoding="UTF-8" standalone="no"?>
<!-- Created with Inkscape (http://www.inkscape.org/) -->

<svg
   version="1.1"
   id="svg3638"
   width="880"
   height="880"
   viewBox="0 0 880 880"
   sodipodi:docname="treadmill-running-publicdomainvectors.org.svg"
   inkscape:version="1.2 (dc2aedaf03, 2022-05-15)"
   xmlns:inkscape="http://www.inkscape.org/namespaces/inkscape"
   xmlns:sodipodi="http://sodipodi.sourceforge.net/DTD/sodipodi-0.dtd"
   xmlns="http://www.w3.org/2000/svg"
   xmlns:svg="http://www.w3.org/2000/svg">
  <defs
     id="defs3642">
    <clipPath
       clipPathUnits="userSpaceOnUse"
       id="clipPath3656">
      <path
         d="M 0,660 H 660 V 0 H 0 Z"
         id="path3654" />
    </clipPath>
  </defs>
  <sodipodi:namedview
     id="namedview3640"
     pagecolor="#ffffff"
     bordercolor="#000000"
     borderopacity="0.25"
     inkscape:showpageshadow="2"
     inkscape:pageopacity="0.0"
     inkscape:pagecheckerboard="0"
     inkscape:deskcolor="#d1d1d1"
     showgrid="false"
     inkscape:zoom="0.95113636"
     inkscape:cx="440.52569"
     inkscape:cy="440.52569"
     inkscape:window-width="1920"
     inkscape:window-height="1017"
     inkscape:window-x="-8"
     inkscape:window-y="-8"
     inkscape:window-maximized="1"
     inkscape:current-layer="g3646">
    <inkscape:page
       x="0"
       y="0"
       id="page3644"
       width="880"
       height="880" />
  </sodipodi:namedview>
  <g
     id="g3646"
     inkscape:groupmode="layer"
     inkscape:label="Page 1"
     transform="matrix(1.3333333,0,0,-1.3333333,0,880)">
    <path
       d="M 0,0 H 660 V 660 H 0 Z"
       style="fill:#e9f2dc;fill-opacity:1;fill-rule:nonzero;stroke:none"
       id="path3648" />
    <g
       id="g3650">
      <g
         id="g3652"
         clip-path="url(#clipPath3656)">
        <g
           id="g3658"
           transform="translate(51.8042,183.8506)">
          <path
             d="m 0,0 h 554.179 c 8.253,0 15.005,-6.752 15.005,-15.005 0,-8.253 -6.752,-15.005 -15.005,-15.005 H 0 c -8.253,0 -15.005,6.752 -15.005,15.005 C -15.005,-6.752 -8.253,0 0,0"
             style="fill:#afc790;fill-opacity:1;fill-rule:evenodd;stroke:none"
             id="path3660" />
        </g>
        <g
           id="g3662"
           transform="translate(279.8726,443.6982)">
          <path
             d="M 0,0 H 140.545 V -21.006 H 0 c -5.778,0 -10.504,4.727 -10.504,10.503 C -10.504,-4.727 -5.778,0 0,0"
             style="fill:#1a1a1a;fill-opacity:1;fill-rule:evenodd;stroke:none"
             id="path3664" />
        </g>
        <g
           id="g3666"
           transform="translate(410.6924,437.2036)">
          <path
             d="m 0,0 89.538,16.438 48.036,31.328 c 7.858,5.125 12.226,13.19 12.226,22.571 v 0.834 H -48.766 L -198.564,0 Z"
             style="fill:#4d4d4d;fill-opacity:1;fill-rule:evenodd;stroke:none"
             id="path3668" />
        </g>
        <g
           id="g3670"
           transform="translate(301.665,453.6416)">
          <path
             d="M 0,0 H 198.565 L 109.027,-16.438 H -89.537 Z"
             style="fill:#1a1a1a;fill-opacity:1;fill-rule:evenodd;stroke:none"
             id="path3672" />
        </g>
        <g
           id="g3674"
           transform="translate(108.3164,443.6982)">
          <path
             d="M 0,0 H 140.545 V -21.006 H 0 c -5.777,0 -10.504,4.727 -10.504,10.503 C -10.504,-4.727 -5.777,0 0,0"
             style="fill:#1a1a1a;fill-opacity:1;fill-rule:evenodd;stroke:none"
             id="path3676" />
        </g>
        <g
           id="g3678"
           transform="translate(212.1279,437.2036)">
          <path
             d="m 0,0 89.537,16.438 48.036,31.328 c 7.86,5.125 12.226,13.19 12.226,22.571 v 0.834 L -20.646,35.016 C -39.418,31.034 -53.877,19.622 -62.111,2.289 l -0.106,-0.224 z"
             style="fill:#666666;fill-opacity:1;fill-rule:evenodd;stroke:none"
             id="path3680" />
        </g>
        <g
           id="g3682"
           transform="translate(401.6895,438.9541)">
          <path
             d="m 0,0 39.629,7.275 h 10.892 l 56.313,-273.677 H 55.63 Z"
             style="fill:#b5a7a3;fill-opacity:1;fill-rule:evenodd;stroke:none"
             id="path3684" />
        </g>
        <g
           id="g3686"
           transform="translate(441.3184,446.2295)">
          <path
             d="M 0,0 H 18.316 L 74.628,-273.678 H 56.311 Z"
             style="fill:#d6cbc7;fill-opacity:1;fill-rule:evenodd;stroke:none"
             id="path3688" />
        </g>
        <g
           id="g3690"
           transform="translate(85.4854,172.5596)">
          <path
             d="m 0,0 22.113,54.813 249.789,50.039 h 141.591 c 11.411,1.86 21.497,-6.08 22.416,-17.643 l 1.384,-17.432 c 0.918,-11.563 -7.526,-23.984 -19.078,-24.41 L 326.445,41.982 323.384,80.536 279.208,24.254 113.684,0 Z"
             style="fill:#ebe2df;fill-opacity:1;fill-rule:evenodd;stroke:none"
             id="path3692" />
        </g>
        <g
           id="g3694"
           transform="translate(85.4854,172.5596)">
          <path
             d="m 0,0 22.113,54.811 259.866,43.084 v -79.8 L 170.685,1.786 C 162.141,0.535 154.822,0 146.234,0 Z"
             style="fill:#1a1a1a;fill-opacity:1;fill-rule:evenodd;stroke:none"
             id="path3696" />
        </g>
        <g
           id="g3698"
           transform="translate(336.6426,274.0273)">
          <path
             d="m 0,0 20.745,3.384 c 11.412,1.86 21.498,-6.078 22.416,-17.643 L 44.545,-31.69 C 45.464,-43.254 36.878,-54.241 25.467,-56.1 L 4.72,-59.485 Z"
             style="fill:#d6cbc7;fill-opacity:1;fill-rule:evenodd;stroke:none"
             id="path3700" />
        </g>
        <g
           id="g3702"
           transform="translate(101.0781,235.6035)">
          <path
             d="m 0,0 -20.748,-3.385 c -11.41,-1.859 -19.995,-12.845 -19.078,-24.409 l 1.384,-17.432 c 0.918,-11.564 11.005,-19.504 22.415,-17.642 l 20.748,3.385 z"
             style="fill:#d6cbc7;fill-opacity:1;fill-rule:evenodd;stroke:none"
             id="path3704" />
        </g>
        <g
           id="g3706"
           transform="translate(93.2964,202.6377)">
          <path
             d="M 0,0 256.527,41.843 257.732,26.662 1.204,-15.181 Z"
             style="fill:#1a1a1a;fill-opacity:1;fill-rule:evenodd;stroke:none"
             id="path3708" />
        </g>
        <g
           id="g3710"
           transform="translate(158.1836,216.6738)">
          <path
             d="M 0,0 126.208,20.586 128.104,-3.27 1.895,-23.855 Z"
             style="fill:#2da3ca;fill-opacity:1;fill-rule:evenodd;stroke:none"
             id="path3712" />
        </g>
        <g
           id="g3714"
           transform="translate(357.3877,277.4111)">
          <path
             d="m 0,0 -276.624,-45.12 2.901,-36.559 276.624,45.12 z"
             style="fill:#666666;fill-opacity:1;fill-rule:evenodd;stroke:none"
             id="path3716" />
        </g>
        <g
           id="g3718"
           transform="translate(362.1094,217.9268)">
          <path
             d="m 0,0 -276.625,-45.121 -1.229,15.489 L -1.23,15.49 Z"
             style="fill:#666666;fill-opacity:1;fill-rule:evenodd;stroke:none"
             id="path3720" />
        </g>
        <g
           id="g3722"
           transform="translate(237.6357,438.9541)">
          <path
             d="m 0,0 39.628,7.275 h 10.893 l 56.314,-273.677 H 55.631 Z"
             style="fill:#b5a7a3;fill-opacity:1;fill-rule:evenodd;stroke:none"
             id="path3724" />
        </g>
        <g
           id="g3726"
           transform="translate(277.2642,446.2295)">
          <path
             d="M 0,0 H 18.317 L 74.63,-273.678 H 56.314 Z"
             style="fill:#d6cbc7;fill-opacity:1;fill-rule:evenodd;stroke:none"
             id="path3728" />
        </g>
        <g
           id="g3730"
           transform="translate(368.1611,172.5518)">
          <path
             d="M 0,0 25.427,93.511 H 189.478 L 208.985,0 Z"
             style="fill:#4d4d4d;fill-opacity:1;fill-rule:evenodd;stroke:none"
             id="path3732" />
        </g>
        <g
           id="g3734"
           transform="translate(342.7363,172.5518)">
          <path
             d="M 0,0 -11.799,57.341 50.852,93.511 70.357,0 Z"
             style="fill:#666666;fill-opacity:1;fill-rule:evenodd;stroke:none"
             id="path3736" />
        </g>
      </g>
    </g>
  </g>
</svg>
